<?xml version="1.0" encoding="UTF-8"?>
<svg id="Layer_2" data-name="Layer 2" xmlns="http://www.w3.org/2000/svg" viewBox="0 0 302.54 75.26">
  <defs>
    <style>
      .cls-1 {
        fill: #33ce76;
      }
    </style>
  </defs>
  <g id="Layer_1-2" data-name="Layer 1">
    <g>
      <path class="cls-1" d="m65.64,36.73c-.33,3.33-1.54,6.26-3.62,8.78-2.09,2.5-4.8,4.62-8.15,6.36-3.34,1.72-7.12,3.04-11.35,3.95-4.22.9-8.59,1.42-13.1,1.57l-5.33.18-6.34,16.84-17.76.03L18.16,26.21l24.42-2.25c3.85-.35,7.27-.31,10.27.13,3,.45,5.47,1.24,7.41,2.38,1.94,1.14,3.38,2.59,4.31,4.35.93,1.77,1.29,3.74,1.08,5.91Zm-34.6,11.56c2.07-.1,4.08-.35,6.04-.75,1.96-.4,3.71-.97,5.26-1.72,1.55-.75,2.8-1.7,3.77-2.85.96-1.16,1.52-2.52,1.68-4.07.19-1.86-.49-3.3-2.05-4.29-1.55-.99-3.74-1.37-6.55-1.16l-6.55.49-5.26,14.53,3.66-.18Z"/>
      <path class="cls-1" d="m96.79,74.26l7.45-22.96-25.2.98-7.45,22.02-17.76.03,18.16-53.08,17.76-1.64-7.15,21.99,25.2-1.42,7.15-22.89,17.76-1.64-18.16,58.58-17.76.03Z"/>
      <path class="cls-1" d="m170.28,62.05l-27.64.53-8.11,11.62-19.54.03,45.57-61.15,19.65-1.81,9.48,62.84-18.2.03-1.21-12.09Zm-19.78-11l18.65-.68-2.13-24.83-16.52,25.51Z"/>
      <path class="cls-1" d="m241.04,54.11c-.24,3.22-1.15,6.15-2.71,8.77-1.57,2.61-3.64,4.84-6.22,6.69-2.58,1.84-5.61,3.25-9.09,4.23-3.48.97-7.25,1.45-11.32,1.45-3.55,0-7.41-.38-11.56-1.12-4.16-.73-7.81-1.8-10.95-3.18l4.73-11.87c2.93,1.22,5.98,2.16,9.14,2.81,3.16.66,6.19.97,9.07.92,1.26-.02,2.51-.14,3.74-.36,1.24-.22,2.37-.59,3.41-1.11,1.04-.52,1.88-1.19,2.54-2,.65-.81,1.03-1.83,1.12-3.03.13-1.67-.49-3.19-1.86-4.55-1.37-1.35-3.75-3.03-7.14-5.02-2.12-1.23-4.08-2.51-5.89-3.84-1.81-1.32-3.36-2.76-4.63-4.33-1.28-1.56-2.23-3.24-2.86-5.05-.63-1.81-.85-3.85-.67-6.12.25-3.12,1.06-5.93,2.44-8.44,1.38-2.51,3.24-4.67,5.58-6.47,2.35-1.81,5.11-3.29,8.28-4.44,3.17-1.16,6.69-1.92,10.53-2.28,7.77-.73,14.81.39,21.13,3.4l-4.59,12.65c-2.34-1.13-4.96-2.04-7.85-2.71-2.89-.66-5.71-.89-8.45-.68-2.52.19-4.63.71-6.35,1.54-1.72.83-2.66,2.31-2.83,4.44-.11,1.4.4,2.64,1.53,3.73,1.13,1.09,3.13,2.59,6.01,4.49,2.1,1.43,4.15,2.84,6.14,4.26,1.99,1.42,3.71,2.98,5.17,4.68,1.46,1.71,2.61,3.59,3.45,5.64.84,2.06,1.17,4.36.97,6.89Z"/>
      <path class="cls-1" d="m302.54,0l-3.42,14.24-18.2,1.37-14.74,58.38-17.76.03,14.74-57.07-18.2,1.37,3.42-13.32,54.17-4.99Z"/>
    </g>
  </g>
</svg>